<svg width="438" height="114" viewBox="0 0 438 114" fill="none" xmlns="http://www.w3.org/2000/svg">
<path d="M299.544 97.062C296.444 97.062 293.471 95.7021 290.625 92.9822C287.842 90.2623 285.565 86.309 283.794 81.1222C282.023 75.9987 281.137 69.7999 281.137 62.5258C281.137 61.6402 281.137 60.7231 281.137 59.7743C281.2 58.8255 281.264 57.8451 281.327 56.833C280.694 56.8963 280.062 56.9279 279.429 56.9279C278.86 56.9279 278.322 56.9279 277.816 56.9279C274.148 56.9279 271.459 56.4535 269.751 55.5047C268.107 54.5559 267.285 53.3224 267.285 51.8044C267.285 50.2863 268.012 48.6101 269.467 46.7757C270.985 44.9414 273.072 43.0754 275.729 41.1778C278.385 39.2802 281.453 37.5724 284.932 36.0543C286.387 30.8043 288.285 25.2697 290.625 19.4504C292.965 13.6311 295.875 7.55875 299.354 1.23343C299.797 0.411144 300.461 0 301.346 0C301.916 0 302.422 0.189759 302.864 0.569277C303.307 0.948795 303.529 1.45482 303.529 2.08735C303.529 2.40362 303.434 2.81476 303.244 3.32079C302.738 4.33284 302.232 5.37652 301.726 6.45182C301.22 7.46388 300.714 8.47593 300.208 9.48798C301.157 9.29822 301.884 9.20334 302.39 9.20334C302.896 9.20334 303.497 9.17171 304.193 9.10846C304.889 9.0452 305.964 8.9187 307.419 8.72894C309.443 8.41267 311.34 8.15966 313.111 7.9699C314.946 7.78014 316.654 7.68526 318.235 7.68526C324.244 7.68526 328.672 8.72894 331.518 10.8163C334.365 12.9036 335.788 15.5603 335.788 18.7862C335.788 22.6446 333.922 26.8826 330.19 31.5001C327.09 35.2953 323.2 38.964 318.52 42.5061C313.902 46.0483 308.684 49.0845 302.864 51.6146C297.108 54.0815 290.973 55.7261 284.458 56.5484C284.205 58.3827 284.015 60.1538 283.889 61.8616C283.762 63.5695 283.699 65.1824 283.699 66.7005C283.699 72.2035 284.331 76.7261 285.596 80.2683C286.925 83.8737 288.538 86.6885 290.435 88.7126C292.396 90.7367 294.325 92.1599 296.223 92.9822C298.184 93.8045 299.765 94.2157 300.967 94.2157C301.916 94.2157 302.548 94.0575 302.864 93.7412C303.117 93.425 303.402 93.2668 303.718 93.2668C304.414 93.2668 304.762 93.7412 304.762 94.69C304.762 95.4491 304.414 95.9551 303.718 96.2081C302.39 96.7774 300.999 97.062 299.544 97.062ZM284.742 54.8405C291.384 53.5122 297.393 51.4881 302.77 48.7682C308.209 46.0483 313.017 42.9173 317.191 39.3751C321.366 35.8329 324.877 32.1326 327.723 28.2742C329.368 26.1236 330.538 24.1943 331.234 22.4865C331.929 20.7154 332.277 19.1657 332.277 17.8374C332.277 15.6868 331.518 13.979 330 12.7139C328.545 11.3856 326.616 10.4368 324.212 9.8675C321.809 9.29822 319.215 9.01358 316.432 9.01358C313.523 9.01358 310.645 9.26659 307.798 9.77262C304.952 10.2786 302.422 10.9428 300.208 11.7651C299.765 11.9549 299.386 11.9865 299.069 11.86C297.235 15.9082 295.559 19.7983 294.041 23.5302C292.586 27.1989 291.289 30.7094 290.151 34.0618C292.87 33.1763 295.717 32.4173 298.69 31.7847C301.663 31.1522 304.73 30.7727 307.893 30.6462H308.273C308.905 30.6462 309.221 30.7727 309.221 31.0257C309.221 31.2155 308.905 31.4368 308.273 31.6899C307.703 31.9429 306.723 32.101 305.331 32.1643C302.422 32.2908 299.67 32.6703 297.077 33.3028C294.483 33.8721 292.017 34.5995 289.676 35.485C288.474 39.1537 287.462 42.601 286.64 45.8269C285.881 49.0529 285.248 52.0574 284.742 54.8405ZM278.196 55.5996C278.702 55.5996 279.208 55.5996 279.714 55.5996C280.283 55.5363 280.852 55.4731 281.422 55.4098C281.675 52.6899 282.054 49.8752 282.56 46.9655C283.066 43.9926 283.73 40.9248 284.553 37.7622C280.504 39.8495 277.279 42.1899 274.875 44.7833C272.471 47.3134 271.269 49.5589 271.269 51.5197C271.269 52.7215 271.839 53.702 272.977 54.461C274.116 55.22 275.855 55.5996 278.196 55.5996Z" fill="#53D251"/>
<path d="M335.43 90.9897C334.607 90.9897 333.817 90.6735 333.058 90.0409C332.362 89.4084 331.761 88.7759 331.255 88.1433C329.231 85.803 327.523 82.7036 326.132 78.8451C324.803 74.9867 323.791 70.7487 323.095 66.1312C322.4 61.4505 322.052 56.7065 322.052 51.8993C322.052 47.4083 322.336 43.0438 322.906 38.8058C323.538 34.5679 324.487 30.7094 325.752 27.2305C327.017 23.7516 328.598 20.9684 330.496 18.8811C332.963 16.0979 335.335 14.7064 337.612 14.7064C339.004 14.7064 340.11 15.3389 340.933 16.604C341.818 17.8058 342.261 19.735 342.261 22.3916C342.261 24.9218 341.755 28.1477 340.743 32.0694C339.794 35.9278 338.15 40.5453 335.809 45.9218C334.987 47.6929 334.101 49.464 333.153 51.2351C332.267 53.0062 331.318 54.8722 330.306 56.833C329.927 57.592 329.61 57.9716 329.357 57.9716C329.231 57.9716 329.168 57.8451 329.168 57.592C329.168 57.086 329.389 56.4219 329.832 55.5996C335.588 44.7833 338.466 34.0302 338.466 23.3404C338.466 19.1025 337.58 16.9835 335.809 16.9835C334.544 16.9835 333.058 18.2169 331.35 20.6838C329.01 24.1627 327.397 28.3058 326.511 33.1131C325.626 37.857 325.183 42.6643 325.183 47.5348C325.183 51.2035 325.341 54.7773 325.657 58.2562C325.973 61.6719 326.353 64.7713 326.796 67.5544C326.985 68.7562 327.27 70.3692 327.65 72.3933C328.029 74.4174 328.535 76.5364 329.168 78.7502C329.8 81.0274 330.496 83.0831 331.255 84.9174C332.077 86.815 332.963 88.175 333.912 88.9973C334.165 89.187 334.418 89.3768 334.671 89.5665C334.987 89.8195 335.335 89.9777 335.714 90.0409C336.284 90.0409 336.568 90.1991 336.568 90.5153C336.568 90.8316 336.189 90.9897 335.43 90.9897Z" fill="#53D251"/>
<path d="M338.653 75.1448C337.641 75.1448 336.787 74.6072 336.091 73.5319C335.585 72.6463 335.332 71.6026 335.332 70.4008C335.332 68.693 335.711 66.7638 336.47 64.6131C337.23 62.4625 338.242 60.3752 339.507 58.3511C340.835 56.327 342.29 54.6191 343.871 53.2276C345.516 51.7727 347.192 50.9188 348.9 50.6658C349.532 50.6026 350.291 50.7607 351.177 51.1402C352.062 51.5197 352.79 51.9941 353.359 52.5634C353.486 51.9309 353.58 51.33 353.644 50.7607C353.707 50.1282 353.739 49.5273 353.739 48.958C353.739 47.1869 353.454 45.6056 352.885 44.214C352.315 42.8224 351.303 41.9052 349.849 41.4625C349.279 41.2727 348.647 41.1778 347.951 41.1778C347.571 41.1778 347.16 41.2411 346.717 41.3676C346.275 41.4308 345.8 41.6206 345.294 41.9369C344.788 42.1899 344.282 42.601 343.776 43.1703C343.27 43.6763 342.922 44.1507 342.733 44.5935C342.606 44.8465 342.29 45.4158 341.784 46.3013C341.278 47.1236 340.867 47.5032 340.55 47.4399C340.297 47.3766 340.171 47.1553 340.171 46.7757C340.171 46.586 340.234 46.3013 340.361 45.9218C340.74 44.72 341.467 43.708 342.543 42.8857C343.618 42.0001 344.788 41.3043 346.053 40.7983C347.318 40.229 348.362 39.9128 349.184 39.8495C349.374 39.8495 349.564 39.8495 349.754 39.8495C349.943 39.7863 350.102 39.7546 350.228 39.7546C351.24 39.7546 352.157 39.9128 352.98 40.229C353.865 40.482 354.561 40.8299 355.067 41.2727C355.889 41.9052 356.553 42.7275 357.059 43.7396C357.565 44.6884 357.818 45.8902 357.818 47.345C357.818 47.7878 357.787 48.2622 357.724 48.7682C357.66 49.2742 357.565 49.7803 357.439 50.2863C357.249 51.2983 356.996 52.595 356.68 54.1764C356.427 55.6944 356.142 57.2758 355.826 58.9204C355.573 60.5649 355.352 62.083 355.162 63.4746C355.035 64.8029 354.972 65.7517 354.972 66.321C354.972 66.9535 355.162 67.6809 355.541 68.5032C355.984 69.2623 356.553 69.6418 357.249 69.6418C357.629 69.6418 358.04 69.452 358.483 69.0725C358.989 68.693 359.495 68.0604 360.001 67.1749C360.317 66.6689 360.602 66.4159 360.855 66.4159C361.171 66.4159 361.329 66.6056 361.329 66.9851C361.329 67.4912 361.076 68.0921 360.57 68.7879C359.368 70.4957 357.85 71.3496 356.016 71.3496C354.498 71.3496 353.422 70.7171 352.79 69.452C351.714 67.3647 351.177 65.4987 351.177 63.8541C351.177 62.1463 351.145 60.9761 351.082 60.3436C350.766 61.1026 350.165 62.3044 349.279 63.949C348.394 65.5303 347.35 67.2065 346.148 68.9776C344.946 70.6855 343.681 72.1403 342.353 73.3421C341.025 74.5439 339.791 75.1448 338.653 75.1448ZM340.171 72.2984C340.803 72.2984 341.531 71.9821 342.353 71.3496C343.239 70.7171 344.156 69.7367 345.105 68.4083C346.37 66.574 347.54 64.5183 348.615 62.2412C349.69 59.964 350.671 57.7502 351.556 55.5996C350.797 53.7652 349.849 52.8481 348.71 52.8481C347.698 52.8481 346.623 53.3857 345.484 54.461C344.345 55.5363 343.27 56.7697 342.258 58.1613C340.993 60.0589 339.981 61.9565 339.222 63.8541C338.526 65.7517 338.178 67.3647 338.178 68.693C338.178 71.0966 338.842 72.2984 340.171 72.2984Z" fill="#53D251"/>
<path d="M361.239 113.192C358.772 113.192 356.779 112.527 355.261 111.199C353.743 109.934 352.984 108.226 352.984 106.076C352.984 104.178 353.522 102.28 354.597 100.383C355.609 98.5485 356.874 96.7774 358.392 95.0696C359.973 93.425 361.555 91.9702 363.136 90.7051C365.919 88.4912 369.208 86.4039 373.004 84.443C376.862 82.4822 381.195 80.9957 386.002 79.9837C386.065 79.2879 386.097 78.5605 386.097 77.8014C386.097 77.1057 386.097 76.4099 386.097 75.7141C386.097 70.5906 385.749 65.9415 385.053 61.7668C384.358 57.5288 383.567 53.8917 382.681 50.8556C380.151 57.1176 377.906 62.336 375.945 66.5107C373.984 70.6222 372.909 74.0695 372.719 76.8526C372.656 77.2954 372.371 77.7698 371.865 78.2758C371.422 78.8451 370.916 79.1298 370.347 79.1298C369.967 79.1298 369.588 78.9084 369.208 78.4656C368.892 78.0861 368.671 77.3903 368.544 76.3782C368.544 76.1252 368.513 75.7773 368.449 75.3346C368.449 74.8918 368.449 74.1011 368.449 72.9626C368.449 71.824 368.449 70.1162 368.449 67.8391C368.449 65.815 368.386 63.7592 368.26 61.6719C368.196 59.5213 367.975 57.5288 367.595 55.6944C367.216 53.8601 366.647 52.3737 365.888 51.2351C365.192 50.0965 364.211 49.5273 362.946 49.5273C361.934 49.5273 360.986 49.9068 360.1 50.6658C359.278 51.4249 358.582 52.1839 358.013 52.9429C357.443 53.6387 357.001 53.9866 356.684 53.9866C356.431 53.9866 356.305 53.8917 356.305 53.702C356.305 53.5755 356.4 53.3857 356.589 53.1327C356.716 52.8164 356.842 52.5634 356.969 52.3737C357.538 51.5514 358.266 50.7291 359.151 49.9068C360.1 49.0845 361.08 48.3887 362.092 47.8194C363.168 47.1869 364.117 46.8706 364.939 46.8706C366.647 46.8706 367.975 47.7562 368.924 49.5273C369.873 51.2351 370.537 53.4173 370.916 56.074C371.359 58.7306 371.58 61.4505 371.58 64.2336C371.58 65.4354 371.517 66.8903 371.391 68.5981C371.264 70.3059 371.106 71.7608 370.916 72.9626C372.181 70.6222 373.794 67.3647 375.755 63.19C377.716 59.0152 379.867 54.3029 382.207 49.0529L381.353 46.586V46.3013C381.353 45.6688 381.543 45.1944 381.922 44.8781C382.365 44.5619 382.808 44.4037 383.251 44.4037C383.63 44.4037 384.01 44.4986 384.389 44.6884C384.769 44.8781 385.022 45.1628 385.148 45.5423C385.907 47.2501 386.54 49.5905 387.046 52.5634C387.615 55.5363 388.026 58.7622 388.279 62.2412C388.596 65.6568 388.754 69.0409 388.754 72.3933C388.754 74.9234 388.659 77.2954 388.469 79.5093C390.05 79.193 391.727 78.94 393.498 78.7502C395.332 78.5605 396.913 78.4656 398.242 78.4656C399.064 78.4656 399.475 78.5921 399.475 78.8451C399.475 79.3511 398.811 79.6674 397.483 79.7939C395.965 79.9204 394.415 80.0786 392.833 80.2683C391.315 80.5213 389.766 80.8376 388.184 81.2171C386.856 88.4912 384.769 94.3105 381.922 98.675C379.139 103.103 376.261 106.424 373.288 108.637C371.138 110.219 369.019 111.357 366.931 112.053C364.907 112.812 363.01 113.192 361.239 113.192ZM360.479 111.199C361.555 111.199 362.788 110.978 364.18 110.535C365.635 110.092 367.153 109.396 368.734 108.448C373.794 105.475 377.716 101.711 380.499 97.1569C383.282 92.6659 385.053 87.5424 385.812 81.7864C382.08 82.7984 378.317 84.2533 374.522 86.1509C370.79 88.1117 367.374 90.3888 364.275 92.9822C362.883 94.184 361.492 95.544 360.1 97.062C358.772 98.5801 357.665 100.13 356.779 101.711C355.894 103.356 355.451 104.937 355.451 106.455C355.451 107.91 355.894 109.049 356.779 109.871C357.665 110.756 358.898 111.199 360.479 111.199Z" fill="#53D251"/>
<path d="M401.259 77.1373C398.981 77.1373 396.989 75.809 395.281 73.1523C393.637 70.4324 392.814 66.1629 392.814 60.3436C392.814 56.5484 393.289 53.5122 394.237 51.2351C395.186 48.8947 396.356 47.1869 397.748 46.1116C399.14 45.0363 400.468 44.4986 401.733 44.4986C402.998 44.4986 404.073 44.9414 404.959 45.8269C405.844 46.6492 406.287 47.851 406.287 49.4324C406.287 50.9505 405.844 52.5634 404.959 54.2712C404.073 55.9158 402.998 57.4339 401.733 58.8255C400.531 60.1538 399.329 61.0393 398.128 61.4821C397.874 61.6086 397.558 61.6719 397.179 61.6719C396.926 61.6719 396.799 61.577 396.799 61.3872C396.799 60.8812 397.305 60.3119 398.317 59.6794C399.582 58.7939 400.784 57.4655 401.923 55.6944C403.061 53.8601 403.631 52.2471 403.631 50.8556C403.631 50.0333 403.441 49.4008 403.061 48.958C402.682 48.452 402.239 48.1989 401.733 48.1989C400.784 48.1989 399.74 48.958 398.602 50.4761C397.527 51.9309 396.736 54.461 396.23 58.0664C396.103 59.0785 395.977 60.0589 395.85 61.0077C395.787 61.8933 395.755 62.7788 395.755 63.6643C395.755 67.2065 396.293 69.9897 397.368 72.0138C398.444 73.9746 399.867 74.955 401.638 74.955C403.156 74.955 404.864 74.0695 406.762 72.2984C408.659 70.4641 410.525 67.6177 412.359 63.7592C412.802 62.7472 413.308 62.2412 413.878 62.2412C414.257 62.2412 414.447 62.4942 414.447 63.0002C414.447 63.443 414.32 63.9174 414.067 64.4234C412.423 68.4716 410.43 71.6026 408.09 73.8165C405.75 76.0303 403.472 77.1373 401.259 77.1373Z" fill="#53D251"/>
<path d="M424.242 80.6478C422.218 80.6478 420.669 79.699 419.593 77.8014C418.518 75.9671 417.98 73.943 417.98 71.7291C417.98 69.6418 418.328 67.4595 419.024 65.1824C419.72 62.9053 420.574 60.6598 421.586 58.446C422.661 56.2321 423.768 54.208 424.907 52.3737C423.768 52.8164 422.693 53.0378 421.681 53.0378C421.175 53.0378 420.732 52.9746 420.352 52.8481C419.973 52.7215 419.657 52.6267 419.404 52.5634C419.087 53.3225 418.518 54.5875 417.696 56.3586C416.937 58.1297 416.114 59.9957 415.229 61.9565C414.407 63.8541 413.679 65.4671 413.047 66.7954C412.035 68.946 411.149 70.0213 410.39 70.0213C410.01 70.0213 409.821 69.7683 409.821 69.2623C409.821 68.8827 409.979 68.3767 410.295 67.7442C411.75 65.0243 413.11 62.336 414.375 59.6794C415.703 57.0228 416.905 54.461 417.98 51.9941C417.854 51.6779 417.727 51.2667 417.601 50.7607C417.474 50.1914 417.411 49.5905 417.411 48.958C417.411 48.2622 417.474 47.5348 417.601 46.7757C417.791 45.9535 418.044 45.1628 418.36 44.4037C418.55 43.961 418.898 43.3284 419.404 42.5061C419.91 41.6206 420.479 40.8299 421.111 40.1342C421.744 39.3751 422.345 38.9956 422.914 38.9956C423.989 38.9956 424.527 39.5649 424.527 40.7034C424.527 41.7787 424.179 43.0122 423.483 44.4037C422.851 45.7953 422.187 47.092 421.491 48.2938C420.795 49.4324 420.447 50.2863 420.447 50.8556C420.447 51.3616 420.7 51.6146 421.206 51.6146C421.902 51.6146 422.756 51.2667 423.768 50.5709C424.843 49.8119 425.697 49.1161 426.33 48.4836C426.646 48.1673 427.152 47.6929 427.848 47.0604C428.544 46.3646 429.208 46.0167 429.84 46.0167C430.473 46.0167 430.884 46.2065 431.074 46.586C431.327 46.9655 431.453 47.4083 431.453 47.9143C431.453 48.4836 431.2 49.211 430.694 50.0965C430.188 50.9188 429.587 51.7411 428.892 52.5634C428.259 53.3857 427.721 54.0815 427.279 54.6508C426.393 55.9791 425.381 57.6553 424.242 59.6794C423.104 61.7035 422.123 63.8857 421.301 66.2261C420.479 68.5032 420.068 70.6855 420.068 72.7728C420.068 74.1644 420.416 75.6192 421.111 77.1373C421.807 78.6554 422.756 79.4144 423.958 79.4144C425.033 79.4144 426.172 78.8451 427.373 77.7066C428.639 76.568 429.809 75.2081 430.884 73.6267C432.023 72.0454 433.003 70.5273 433.825 69.0725C434.711 67.6177 435.312 66.6056 435.628 66.0363C435.755 65.7201 435.976 65.3406 436.292 64.8978C436.608 64.3918 436.988 64.1387 437.431 64.1387C437.81 64.1387 438 64.3285 438 64.708C438 65.0243 437.905 65.4038 437.715 65.8466C437.589 66.2261 437.462 66.574 437.336 66.8903C436.767 68.2186 436.071 69.6101 435.248 71.065C434.426 72.5198 433.857 73.5002 433.541 74.0062C432.655 75.4611 431.327 76.9159 429.556 78.3707C427.848 79.8888 426.077 80.6478 424.242 80.6478Z" fill="#53D251"/>
<path d="M19.4448 28.9519H0V69.3416H13.6171V59.4173H19.4448C30.6962 59.4173 37.851 53.5319 37.851 44.1846C37.851 34.8373 30.6962 28.9519 19.4448 28.9519ZM18.5793 48.916H13.6171V39.4532H18.5793C22.3298 39.4532 24.1184 41.2419 24.1184 44.1846C24.1184 47.1273 22.3298 48.916 18.5793 48.916Z" fill="white"/>
<path d="M58.5881 69.9186C69.3203 69.9186 76.9366 63.1101 76.9366 53.5319C76.9366 43.9538 69.3203 37.2029 58.5881 37.2029C47.9137 37.2029 40.2396 43.9538 40.2396 53.5319C40.2396 63.1101 47.9137 69.9186 58.5881 69.9186ZM58.5881 59.7635C55.7031 59.7635 53.4529 57.6286 53.4529 53.5319C53.4529 49.4353 55.7031 47.3581 58.5881 47.3581C61.4731 47.3581 63.7234 49.4353 63.7234 53.5319C63.7234 57.6286 61.4731 59.7635 58.5881 59.7635Z" fill="white"/>
<path d="M102.078 37.2029C98.1547 37.2029 95.3275 38.2415 93.4234 40.3764V37.7799H81.018V80.5354H94.0581V67.2068C95.9622 69.0531 98.6163 69.9186 102.078 69.9186C110.329 69.9186 117.311 63.7448 117.311 53.5896C117.311 43.4345 110.329 37.2029 102.078 37.2029ZM98.9625 59.7635C96.0776 59.7635 93.8273 57.6863 93.8273 53.5896C93.8273 49.493 96.0776 47.3581 98.9625 47.3581C101.848 47.3581 104.098 49.493 104.098 53.5896C104.098 57.6863 101.848 59.7635 98.9625 59.7635Z" fill="white"/>
<path d="M142.71 70.2648C150.615 70.2648 156.847 67.3799 160.828 62.1869L152.231 54.5128C149.865 57.5132 147.038 59.2442 143.403 59.2442C137.748 59.2442 133.94 55.3206 133.94 49.1468C133.94 42.9729 137.748 39.0493 143.403 39.0493C147.038 39.0493 149.865 40.7803 152.231 43.7807L160.828 36.1067C156.847 30.9137 150.615 28.0287 142.71 28.0287C129.728 28.0287 120.207 36.7414 120.207 49.1468C120.207 61.5522 129.728 70.2648 142.71 70.2648Z" fill="white"/>
<path d="M180.186 69.9186C190.918 69.9186 198.534 63.1101 198.534 53.5319C198.534 43.9538 190.918 37.2029 180.186 37.2029C169.511 37.2029 161.837 43.9538 161.837 53.5319C161.837 63.1101 169.511 69.9186 180.186 69.9186ZM180.186 59.7635C177.301 59.7635 175.05 57.6286 175.05 53.5319C175.05 49.4353 177.301 47.3581 180.186 47.3581C183.071 47.3581 185.321 49.4353 185.321 53.5319C185.321 57.6286 183.071 59.7635 180.186 59.7635Z" fill="white"/>
<path d="M215.021 41.1842V37.7799H202.615V69.3416H215.656V55.3206C215.656 50.3008 218.425 48.5121 222.349 48.5121C223.272 48.5121 224.08 48.5698 225.234 48.7429V37.2029C220.849 37.2029 217.329 38.53 215.021 41.1842Z" fill="white"/>
<path d="M250.855 37.2029C247.163 37.2029 243.816 38.4146 241.335 40.8957V37.7799H228.93V69.3416H241.97V54.5128C241.97 49.8392 244.22 48.1659 246.874 48.1659C249.24 48.1659 250.74 49.6661 250.74 53.5896V69.3416H263.78V51.3394C263.78 41.415 258.126 37.2029 250.855 37.2029Z" fill="white"/>
<path d="M77.6449 54.0298C77.6449 64.9025 68.8309 73.7164 57.9583 73.7164C47.0857 73.7164 38.2717 64.9025 38.2717 54.0298C38.2717 43.1572 47.0857 34.3432 57.9583 34.3432C68.8309 34.3432 77.6449 43.1572 77.6449 54.0298Z" fill="url(#paint0_radial_2_68)"/>
<path d="M69.1142 54.0296L50.4119 64.8273V43.2318L69.1142 54.0296Z" fill="#032541"/>
<path d="M200.139 54.0298C200.139 64.9025 191.325 73.7164 180.453 73.7164C169.58 73.7164 160.766 64.9025 160.766 54.0298C160.766 43.1572 169.58 34.3432 180.453 34.3432C191.325 34.3432 200.139 43.1572 200.139 54.0298Z" fill="url(#paint1_radial_2_68)"/>
<path d="M191.609 54.0296L172.906 64.8273V43.2318L191.609 54.0296Z" fill="#032541"/>
<defs>
<radialGradient id="paint0_radial_2_68" cx="0" cy="0" r="1" gradientUnits="userSpaceOnUse" gradientTransform="translate(219 56.5958) rotate(54.1589) scale(349.079 918.584)">
<stop stop-color="white"/>
<stop offset="1" stop-color="#D9D9D9"/>
</radialGradient>
<radialGradient id="paint1_radial_2_68" cx="0" cy="0" r="1" gradientUnits="userSpaceOnUse" gradientTransform="translate(219 56.5958) rotate(54.1589) scale(349.079 918.584)">
<stop stop-color="white"/>
<stop offset="1" stop-color="#D9D9D9"/>
</radialGradient>
</defs>
</svg>
